<svg width="24" height="24" viewBox="0 0 24 24" fill="none" xmlns="http://www.w3.org/2000/svg">
<path d="M21.6867 11.4651L19.5625 12.5271L16.8125 7.26072L18.9583 6.18782C19.1195 6.10721 19.3059 6.09314 19.4774 6.14863C19.6489 6.20412 19.7917 6.32474 19.8752 6.48451L21.9886 10.5319C22.0309 10.6128 22.0566 10.7014 22.0643 10.7924C22.072 10.8833 22.0614 10.9749 22.0333 11.0618C22.0052 11.1487 21.9601 11.2291 21.9006 11.2983C21.841 11.3675 21.7683 11.4242 21.6867 11.4651V11.4651Z" stroke="white" stroke-width="1.5" stroke-linecap="round" stroke-linejoin="round"/>
<path d="M4.43781 12.4353L2.31363 11.3733C2.23197 11.3324 2.15926 11.2757 2.09974 11.2065C2.04023 11.1373 1.9951 11.0569 1.96699 10.97C1.93888 10.8831 1.92835 10.7915 1.93603 10.7006C1.9437 10.6096 1.96942 10.521 2.01168 10.4401L4.12513 6.39272C4.20856 6.23295 4.3514 6.11233 4.52288 6.05683C4.69437 6.00134 4.88079 6.01541 5.04201 6.09602L7.18781 7.16892L4.43781 12.4353Z" stroke="white" stroke-width="1.5" stroke-linecap="round" stroke-linejoin="round"/>
<path d="M19.5625 12.5277L18.1875 14.1362L15.0252 17.2985C14.9413 17.3824 14.837 17.4432 14.7226 17.4749C14.6082 17.5066 14.4875 17.5081 14.3724 17.4793L9.39169 16.2342C9.29827 16.2108 9.2108 16.1681 9.13494 16.1088L4.4375 12.4355" stroke="white" stroke-width="1.5" stroke-linecap="round" stroke-linejoin="round"/>
<path d="M18.1877 14.1367L14.4065 11.3867L13.3065 12.2117C12.8305 12.5687 12.2515 12.7617 11.6565 12.7617C11.0615 12.7617 10.4825 12.5687 10.0065 12.2117L9.54062 11.8623C9.46183 11.8032 9.39665 11.7279 9.3495 11.6414C9.30235 11.5549 9.27434 11.4593 9.26735 11.3611C9.26037 11.2628 9.27458 11.1642 9.30903 11.0719C9.34347 10.9797 9.39734 10.8958 9.46699 10.8262L12.8301 7.46308C12.8939 7.39924 12.9697 7.3486 13.0531 7.31405C13.1366 7.2795 13.226 7.26172 13.3162 7.26172H16.8127" stroke="white" stroke-width="1.5" stroke-linecap="round" stroke-linejoin="round"/>
<path d="M7.2373 7.1687L11.6476 5.88295C11.8052 5.83702 11.9739 5.84896 12.1235 5.91661L15.0942 7.26081" stroke="white" stroke-width="1.5" stroke-linecap="round" stroke-linejoin="round"/>
<path d="M10.625 19.2928L8.03489 18.6453C7.92979 18.619 7.83238 18.5682 7.75061 18.4972L5.8125 16.8125" stroke="white" stroke-width="1.5" stroke-linecap="round" stroke-linejoin="round"/>
</svg>
