<svg width="13" height="13" viewBox="0 0 13 13" fill="none" xmlns="http://www.w3.org/2000/svg">
<path d="M4.44629 6.4999C4.44629 7.63516 5.36475 8.55361 6.5 8.55361C7.63526 8.55361 8.55372 7.63516 8.55372 6.4999C8.55372 5.36465 7.63526 4.44619 6.5 4.44619C5.36475 4.44619 4.44629 5.36318 4.44629 6.4999ZM12.1836 4.3085L8.75147 4.48574C9.68311 5.57412 9.69776 7.14443 8.91407 8.34854L6.16016 12.5849C7.30274 12.6464 8.48047 12.3959 9.54688 11.7763C12.1836 10.2528 13.2529 7.05801 12.1836 4.3085V4.3085ZM3.6919 7.67031L1.39942 3.16152C0.750116 4.15376 0.404915 5.3141 0.406254 6.4999C0.406254 9.54678 2.63721 12.0707 5.55372 12.5175L7.11963 9.4501C5.70459 9.7167 4.33789 8.94033 3.6919 7.67031V7.67031ZM6.89258 3.48818L11.9375 3.75332C11.4219 2.73086 10.6104 1.8417 9.54395 1.22207C8.57862 0.663966 7.51807 0.398829 6.47803 0.406153C4.6836 0.413478 2.93018 1.21475 1.75977 2.66934L3.6377 5.55361C4.10645 4.20742 5.46582 3.40469 6.89258 3.48818Z" fill="white"/>
</svg>
