<svg width="16" height="13" viewBox="0 0 16 13" fill="none" xmlns="http://www.w3.org/2000/svg">
<path d="M15.6246 3.99858H13.7537L13.2337 2.69784C12.6993 1.36051 11.424 0.496582 9.98427 0.496582H6.01552C4.57614 0.496582 3.30052 1.36051 2.76583 2.69784L2.24583 3.99858H0.375199C0.131137 3.99858 -0.0479262 4.22808 0.0114489 4.46478L0.198949 5.21521C0.240512 5.38218 0.390512 5.49943 0.5627 5.49943H1.18989C0.7702 5.8662 0.499887 6.39932 0.499887 7.00029V8.50114C0.499887 9.00518 0.692387 9.46012 0.999888 9.8122V11.5028C0.999888 12.0554 1.4477 12.5034 1.99989 12.5034H2.99989C3.55208 12.5034 3.99989 12.0554 3.99989 11.5028V10.5023H11.9999V11.5028C11.9999 12.0554 12.4477 12.5034 12.9999 12.5034H13.9999C14.5521 12.5034 14.9999 12.0554 14.9999 11.5028V9.8122C15.3074 9.46044 15.4999 9.00549 15.4999 8.50114V7.00029C15.4999 6.39932 15.2296 5.8662 14.8102 5.49943H15.4374C15.6096 5.49943 15.7596 5.38218 15.8012 5.21521L15.9887 4.46478C16.0477 4.22808 15.8687 3.99858 15.6246 3.99858ZM4.6227 3.44107C4.85052 2.87137 5.40208 2.49772 6.01552 2.49772H9.98427C10.5977 2.49772 11.1493 2.87137 11.3771 3.44107L11.9999 4.99915H3.99989L4.6227 3.44107ZM2.99989 8.49489C2.39989 8.49489 1.99989 8.09591 1.99989 7.49744C1.99989 6.89898 2.39989 6.5 2.99989 6.5C3.59989 6.5 4.49989 7.3977 4.49989 7.99616C4.49989 8.59463 3.59989 8.49489 2.99989 8.49489ZM12.9999 8.49489C12.3999 8.49489 11.4999 8.59463 11.4999 7.99616C11.4999 7.3977 12.3999 6.5 12.9999 6.5C13.5999 6.5 13.9999 6.89898 13.9999 7.49744C13.9999 8.09591 13.5999 8.49489 12.9999 8.49489Z" fill="white"/>
</svg>
