<svg width="54" height="54" viewBox="0 0 54 54" fill="none" xmlns="http://www.w3.org/2000/svg">
<path d="M48.3419 25.5592L43.6068 27.9267L37.4766 16.187L42.2599 13.7953C42.6193 13.6157 43.0348 13.5843 43.4171 13.708C43.7994 13.8317 44.1178 14.1006 44.3038 14.4567L49.015 23.4791C49.1092 23.6595 49.1666 23.8568 49.1837 24.0596C49.2008 24.2624 49.1773 24.4666 49.1146 24.6603C49.052 24.8539 48.9514 25.0331 48.8187 25.1875C48.686 25.3418 48.5239 25.4682 48.3419 25.5592V25.5592Z" stroke="white" stroke-width="3.34375" stroke-linecap="round" stroke-linejoin="round"/>
<path d="M9.8909 27.7214L5.15577 25.3539C4.97373 25.2628 4.81164 25.1365 4.67897 24.9821C4.5463 24.8278 4.4457 24.6486 4.38303 24.4549C4.32037 24.2613 4.29691 24.0571 4.31401 23.8543C4.33112 23.6515 4.38845 23.4541 4.48265 23.2737L9.1939 14.2514C9.37987 13.8953 9.69828 13.6264 10.0806 13.5027C10.4628 13.379 10.8784 13.4103 11.2378 13.59L16.0211 15.9817L9.8909 27.7214Z" stroke="white" stroke-width="3.34375" stroke-linecap="round" stroke-linejoin="round"/>
<path d="M43.6068 27.9268L40.5417 31.5125L33.4925 38.5617C33.3053 38.7489 33.0729 38.8844 32.8179 38.955C32.5628 39.0256 32.2938 39.029 32.0371 38.9648L20.9344 36.1892C20.7261 36.1371 20.5311 36.0419 20.362 35.9096L9.89062 27.7214" stroke="white" stroke-width="3.34375" stroke-linecap="round" stroke-linejoin="round"/>
<path d="M40.5412 31.5125L32.1121 25.3823L29.6601 27.2214C28.5989 28.0172 27.3083 28.4474 25.9819 28.4474C24.6555 28.4474 23.3649 28.0172 22.3038 27.2214L21.2654 26.4426C21.0897 26.3108 20.9444 26.1429 20.8393 25.9501C20.7342 25.7573 20.6718 25.5442 20.6562 25.3252C20.6406 25.1061 20.6723 24.8863 20.7491 24.6806C20.8259 24.4749 20.946 24.2881 21.1012 24.1328L28.5982 16.6359C28.7405 16.4936 28.9094 16.3807 29.0954 16.3037C29.2813 16.2267 29.4806 16.187 29.6818 16.187H37.4761" stroke="white" stroke-width="3.34375" stroke-linecap="round" stroke-linejoin="round"/>
<path d="M16.1328 15.9819L25.9641 13.1157C26.3153 13.0133 26.6916 13.0399 27.0249 13.1907L33.6471 16.1872" stroke="white" stroke-width="3.34375" stroke-linecap="round" stroke-linejoin="round"/>
<path d="M23.6829 43.0068L17.9092 41.5633C17.6749 41.5047 17.4577 41.3916 17.2754 41.2332L12.9551 37.4778" stroke="white" stroke-width="3.34375" stroke-linecap="round" stroke-linejoin="round"/>
</svg>
