<svg width="54" height="54" viewBox="0 0 54 54" fill="none" xmlns="http://www.w3.org/2000/svg">
<path d="M47.6484 15.794L40.9609 19.6445V11.7031C40.9609 9.85884 39.4615 8.35938 37.6172 8.35938H6.6875C4.84321 8.35938 3.34375 9.85884 3.34375 11.7031V41.7969C3.34375 43.6412 4.84321 45.1406 6.6875 45.1406H37.6172C39.4615 45.1406 40.9609 43.6412 40.9609 41.7969V33.8555L47.6484 37.706C48.7613 38.3486 50.1562 37.544 50.1562 36.264V17.2412C50.1562 15.956 48.7613 15.1514 47.6484 15.794ZM37.1992 41.3789H7.10547V12.1211H37.1992V41.3789ZM46.3945 32.6538L40.9609 29.5295V23.9757L46.3945 20.8462V32.6538ZM10.8672 18.8086H16.7188C16.9486 18.8086 17.1367 18.6205 17.1367 18.3906V15.8828C17.1367 15.6529 16.9486 15.4648 16.7188 15.4648H10.8672C10.6373 15.4648 10.4492 15.6529 10.4492 15.8828V18.3906C10.4492 18.6205 10.6373 18.8086 10.8672 18.8086Z" fill="white"/>
</svg>
