<svg width="54" height="54" viewBox="0 0 54 54" fill="none" xmlns="http://www.w3.org/2000/svg">
<path fill-rule="evenodd" clip-rule="evenodd" d="M26.625 8.875C32.7421 8.875 37.7188 13.8517 37.7188 19.9688C37.7188 25.3248 33.9003 29.8089 28.8438 30.8362V33.2812C28.8438 34.5082 27.852 35.5 26.625 35.5C25.398 35.5 24.4062 34.5082 24.4062 33.2812V28.8438C24.4062 27.6168 25.398 26.625 26.625 26.625C30.2948 26.625 33.2812 23.6386 33.2812 19.9688C33.2812 16.2989 30.2948 13.3125 26.625 13.3125C22.9552 13.3125 19.9688 16.2989 19.9688 19.9688C19.9688 21.1957 18.977 22.1875 17.75 22.1875C16.523 22.1875 15.5312 21.1957 15.5312 19.9688C15.5312 13.8517 20.5079 8.875 26.625 8.875ZM24.4062 42.1562C24.4062 40.9293 25.398 39.9375 26.625 39.9375C27.852 39.9375 28.8438 40.9293 28.8438 42.1562C28.8438 43.3832 27.852 44.375 26.625 44.375C25.398 44.375 24.4062 43.3832 24.4062 42.1562Z" fill="white"/>
</svg>
