<svg width="54" height="54" viewBox="0 0 54 54" fill="none" xmlns="http://www.w3.org/2000/svg">
<g clip-path="url(#clip0_950_4125)">
<path d="M24.5208 37.8958C24.5208 39.1219 25.524 40.125 26.75 40.125C27.976 40.125 28.9792 39.1219 28.9792 37.8958C28.9792 36.6698 27.976 35.6667 26.75 35.6667C25.524 35.6667 24.5208 36.6698 24.5208 37.8958ZM24.5208 6.6875V15.6042H28.9792V11.3242C36.536 12.4165 42.3542 18.881 42.3542 26.75C42.3542 35.3769 35.3769 42.3542 26.75 42.3542C18.1231 42.3542 11.1458 35.3769 11.1458 26.75C11.1458 23.005 12.461 19.5721 14.6679 16.8971L26.75 28.9792L29.8931 25.836L14.7348 10.6777V10.7223C9.85292 14.3781 6.6875 20.174 6.6875 26.75C6.6875 37.829 15.6488 46.8125 26.75 46.8125C37.829 46.8125 46.8125 37.829 46.8125 26.75C46.8125 15.671 37.829 6.6875 26.75 6.6875H24.5208ZM40.125 26.75C40.125 25.524 39.1219 24.5208 37.8958 24.5208C36.6698 24.5208 35.6667 25.524 35.6667 26.75C35.6667 27.976 36.6698 28.9792 37.8958 28.9792C39.1219 28.9792 40.125 27.976 40.125 26.75ZM13.375 26.75C13.375 27.976 14.3781 28.9792 15.6042 28.9792C16.8302 28.9792 17.8333 27.976 17.8333 26.75C17.8333 25.524 16.8302 24.5208 15.6042 24.5208C14.3781 24.5208 13.375 25.524 13.375 26.75Z" fill="white"/>
</g>
<defs>
<clipPath id="clip0_950_4125">
<rect width="53.5" height="53.5" fill="white"/>
</clipPath>
</defs>
</svg>
