<svg width="52" height="52" viewBox="0 0 52 52" fill="none" xmlns="http://www.w3.org/2000/svg">
<path fill-rule="evenodd" clip-rule="evenodd" d="M19.3118 23.6042C24.0523 23.6042 27.8952 19.7613 27.8952 15.0208C27.8952 10.2804 24.0523 6.4375 19.3118 6.4375C14.5714 6.4375 10.7285 10.2804 10.7285 15.0208C10.7285 19.7613 14.5714 23.6042 19.3118 23.6042ZM19.3118 19.3125C21.6821 19.3125 23.6035 17.3911 23.6035 15.0208C23.6035 12.6506 21.6821 10.7292 19.3118 10.7292C16.9416 10.7292 15.0202 12.6506 15.0202 15.0208C15.0202 17.3911 16.9416 19.3125 19.3118 19.3125Z" fill="white"/>
<path d="M27.8952 30.0417C29.0803 30.0417 30.041 31.0024 30.041 32.1875V45.0625H34.3327V32.1875C34.3327 28.6322 31.4505 25.75 27.8952 25.75H10.7285C7.17318 25.75 4.29102 28.6322 4.29102 32.1875V45.0625H8.58268V32.1875C8.58268 31.0024 9.5434 30.0417 10.7285 30.0417H27.8952Z" fill="white"/>
<path d="M49.3535 23.6042H36.4785V27.8958H49.3535V23.6042Z" fill="white"/>
<path d="M38.6244 32.1875H49.3535V36.4792H38.6244V32.1875Z" fill="white"/>
<path d="M49.3535 15.0208H34.3327V19.3125H49.3535V15.0208Z" fill="white"/>
</svg>
