<svg width="24" height="24" viewBox="0 0 24 24" fill="none" xmlns="http://www.w3.org/2000/svg">
<path d="M21.6867 11.466L19.5625 12.5281L16.8125 7.26169L18.9583 6.18879C19.1195 6.10819 19.3059 6.09411 19.4774 6.14961C19.6489 6.2051 19.7917 6.32572 19.8752 6.48549L21.9886 10.5329C22.0309 10.6138 22.0566 10.7024 22.0643 10.7933C22.072 10.8843 22.0614 10.9759 22.0333 11.0628C22.0052 11.1496 21.9601 11.23 21.9006 11.2993C21.841 11.3685 21.7683 11.4252 21.6867 11.466V11.466Z" stroke="white" stroke-width="1.5" stroke-linecap="round" stroke-linejoin="round"/>
<path d="M4.43781 12.4358L2.31363 11.3737C2.23197 11.3329 2.15926 11.2762 2.09974 11.207C2.04023 11.1378 1.9951 11.0574 1.96699 10.9705C1.93888 10.8836 1.92835 10.792 1.93603 10.7011C1.9437 10.6101 1.96942 10.5215 2.01168 10.4406L4.12513 6.39321C4.20856 6.23343 4.3514 6.11281 4.52288 6.05732C4.69437 6.00183 4.88079 6.0159 5.04201 6.09651L7.18781 7.16941L4.43781 12.4358Z" stroke="white" stroke-width="1.5" stroke-linecap="round" stroke-linejoin="round"/>
<path d="M19.5625 12.5281L18.1875 14.1367L15.0252 17.299C14.9413 17.3829 14.837 17.4437 14.7226 17.4754C14.6082 17.5071 14.4875 17.5086 14.3724 17.4798L9.39169 16.2346C9.29827 16.2113 9.2108 16.1686 9.13494 16.1092L4.4375 12.436" stroke="white" stroke-width="1.5" stroke-linecap="round" stroke-linejoin="round"/>
<path d="M18.1877 14.1367L14.4065 11.3867L13.3065 12.2117C12.8305 12.5687 12.2515 12.7617 11.6565 12.7617C11.0615 12.7617 10.4825 12.5687 10.0065 12.2117L9.54062 11.8623C9.46183 11.8032 9.39665 11.7279 9.3495 11.6414C9.30235 11.5549 9.27434 11.4593 9.26735 11.3611C9.26037 11.2628 9.27458 11.1642 9.30903 11.0719C9.34347 10.9797 9.39734 10.8958 9.46699 10.8262L12.8301 7.46308C12.8939 7.39924 12.9697 7.3486 13.0531 7.31405C13.1366 7.2795 13.226 7.26172 13.3162 7.26172H16.8127" stroke="white" stroke-width="1.5" stroke-linecap="round" stroke-linejoin="round"/>
<path d="M7.2373 7.16968L11.6476 5.88392C11.8052 5.83799 11.9739 5.84993 12.1235 5.91758L15.0942 7.26179" stroke="white" stroke-width="1.5" stroke-linecap="round" stroke-linejoin="round"/>
<path d="M10.625 19.2928L8.03489 18.6453C7.92979 18.619 7.83238 18.5682 7.75061 18.4972L5.8125 16.8125" stroke="white" stroke-width="1.5" stroke-linecap="round" stroke-linejoin="round"/>
</svg>
