<svg width="150" height="46" viewBox="0 0 150 46" fill="none" xmlns="http://www.w3.org/2000/svg">
<rect x="0.791304" y="0.631148" width="148.279" height="45" rx="6.27049" stroke="url(#paint0_linear_802_8891)" stroke-width="0.737705"/>
<path fill-rule="evenodd" clip-rule="evenodd" d="M44.7151 16.8285H47.3347C47.9094 16.8423 48.4808 16.7363 49.0122 16.5172C49.4616 16.3249 49.8613 16.0328 50.1808 15.6629C50.4963 15.2879 50.7291 14.8505 50.8639 14.3793C51.0148 13.8592 51.0893 13.32 51.0852 12.7785C51.0861 12.2756 51.0272 11.7743 50.9096 11.2854C50.8002 10.8181 50.5944 10.3789 50.3054 9.99586C50.0027 9.60564 49.6095 9.29498 49.1598 9.0907C48.5915 8.84664 47.9764 8.73078 47.3583 8.75135H44.7159V16.8277L44.7151 16.8285ZM45.2122 16.3982V9.18127H47.2778C47.4996 9.18271 47.7213 9.196 47.9417 9.22111C48.1929 9.24835 48.4403 9.30327 48.6794 9.38488C48.9314 9.47161 49.1708 9.59143 49.3913 9.74119C49.6343 9.91008 49.8414 10.1255 50.0006 10.3749C50.1943 10.6806 50.3392 11.0146 50.43 11.3649C50.5476 11.8268 50.6027 12.3025 50.5938 12.7791C50.612 13.3747 50.5143 13.9683 50.3061 14.5267C50.1423 14.9474 49.8856 15.3257 49.5551 15.6332C49.2578 15.9027 48.9054 16.1041 48.5223 16.2234C48.1551 16.3386 47.7726 16.3978 47.3877 16.399H45.2196L45.2122 16.3982ZM51.9364 15.0977C52.0444 15.4504 52.2198 15.7789 52.4528 16.0648C52.6803 16.3414 52.9653 16.5652 53.2879 16.7207C54.0138 17.0452 54.8437 17.0452 55.5696 16.7207C55.8921 16.565 56.177 16.3412 56.4047 16.0648C56.6372 15.7785 56.8125 15.4502 56.9211 15.0977C57.0394 14.7168 57.0984 14.3199 57.0959 13.9211C57.0986 13.5241 57.0396 13.1292 56.9211 12.7503C56.8108 12.3986 56.6356 12.0706 56.4047 11.7832C56.1786 11.5032 55.8934 11.2765 55.5696 11.1193C54.8436 10.795 54.0139 10.795 53.2879 11.1193C52.964 11.2763 52.6788 11.503 52.4528 11.7832C52.2213 12.0702 52.0461 12.3983 51.9364 12.7503C51.8179 13.1292 51.7589 13.5241 51.7616 13.9211C51.7592 14.3199 51.8181 14.7168 51.9364 15.0977ZM52.3377 12.9203C52.4288 12.6124 52.5739 12.3231 52.7663 12.066C52.9529 11.8187 53.192 11.6159 53.4664 11.4722C54.072 11.1788 54.7787 11.1788 55.3844 11.4722C55.6587 11.6161 55.8977 11.8189 56.0845 12.066C56.2768 12.3231 56.422 12.6124 56.5131 12.9203C56.7088 13.5733 56.7088 14.2694 56.5131 14.9224C56.4219 15.2303 56.2768 15.5195 56.0845 15.7767C55.8971 16.0223 55.6582 16.2237 55.3844 16.3668C54.7787 16.6602 54.072 16.6602 53.4664 16.3668C53.1925 16.2239 52.9534 16.0224 52.7663 15.7767C52.574 15.5195 52.4289 15.2303 52.3377 14.9224C52.1419 14.2694 52.1419 13.5733 52.3377 12.9203ZM57.8145 11.014H57.3512L59.1955 16.8286H59.7332L61.337 11.557H61.3591L62.9518 16.8286H63.4823L65.3457 11.014H64.8714L63.2484 16.3306H63.2255L61.6336 11.014H61.0574L59.4765 16.3306H59.4537L57.8145 11.014ZM65.5603 16.8286H65.9889V13.6837C65.9856 13.3523 66.0334 13.0224 66.1306 12.7055C66.2154 12.4243 66.3553 12.1627 66.5422 11.9361C66.7213 11.7226 66.9448 11.5509 67.1973 11.433C67.4738 11.3081 67.7747 11.2464 68.0781 11.2523C68.3992 11.2347 68.7186 11.3092 68.9988 11.4669C69.2052 11.5944 69.376 11.772 69.4952 11.9833C69.6027 12.1771 69.67 12.3907 69.6929 12.6111C69.7134 12.7914 69.7247 12.9726 69.7269 13.1541V16.8308H70.1562V13.2315C70.1562 13.1113 70.1562 12.9696 70.1444 12.8073C70.1362 12.638 70.1137 12.4697 70.0773 12.3042C70.0373 12.1249 69.9745 11.9513 69.8906 11.7878C69.8014 11.6145 69.6808 11.4592 69.5351 11.3297C69.365 11.1829 69.1674 11.0713 68.9538 11.0014C68.6745 10.9121 68.3823 10.87 68.0892 10.8768C67.8648 10.877 67.6415 10.9075 67.4252 10.9675C66.9976 11.0845 66.6168 11.3314 66.3356 11.6742C66.1943 11.8476 66.0854 12.045 66.014 12.257H65.9911V11.014H65.5611V16.8286H65.5603ZM71.0484 8.75227V16.8287H71.4778V8.75227H71.0484V8.75227ZM72.7816 15.0962C72.8899 15.4489 73.0652 15.7773 73.298 16.0634C73.5258 16.34 73.811 16.5637 74.1339 16.7192C74.8595 17.0438 75.6892 17.0438 76.4148 16.7192C76.7377 16.5637 77.0229 16.34 77.2507 16.0634C77.4835 15.7773 77.6588 15.4489 77.7671 15.0962C77.886 14.7154 77.9452 14.3185 77.9426 13.9196C77.9454 13.5226 77.8862 13.1276 77.7671 12.7489C77.6571 12.397 77.4819 12.0689 77.2507 11.7817C77.0244 11.5015 76.739 11.2748 76.4148 11.1178C75.6891 10.7935 74.8596 10.7935 74.1339 11.1178C73.8097 11.2748 73.5243 11.5015 73.298 11.7817C73.0668 12.0689 72.8916 12.397 72.7816 12.7489C72.6628 13.1276 72.6038 13.5226 72.6068 13.9196C72.6041 14.319 72.6633 14.7164 72.7824 15.0977L72.7816 15.0962ZM73.1823 12.9186C73.274 12.6108 73.4194 12.3216 73.6116 12.0644C73.798 11.8169 74.0372 11.614 74.3117 11.4705C74.9173 11.1769 75.6241 11.1769 76.2297 11.4705C76.5043 11.614 76.7434 11.8169 76.9298 12.0644C77.1221 12.3216 77.2674 12.6108 77.3592 12.9186C77.5549 13.5717 77.5549 14.2677 77.3592 14.9208C77.2674 15.2286 77.1221 15.5177 76.9298 15.775C76.7429 16.021 76.5038 16.2225 76.2297 16.3652C75.6241 16.6588 74.9173 16.6588 74.3117 16.3652C74.0377 16.2225 73.7986 16.021 73.6116 15.775C73.4194 15.5177 73.274 15.2286 73.1823 14.9208C72.9871 14.2681 72.9873 13.5726 73.183 12.9201L73.1823 12.9186ZM83.3118 15.9787C83.3112 16.0905 83.3206 16.2021 83.3399 16.3121C83.3561 16.4074 83.3929 16.498 83.4476 16.5777C83.5065 16.6585 83.5867 16.7213 83.6792 16.7592C83.8104 16.8096 83.9504 16.8327 84.0908 16.8271C84.2091 16.8272 84.327 16.8119 84.4413 16.7813V16.4184C84.3368 16.4376 84.231 16.4489 84.1248 16.4523C84.0446 16.4577 83.965 16.4356 83.899 16.3896C83.846 16.3474 83.8068 16.2904 83.7862 16.2258C83.7623 16.1526 83.7489 16.0763 83.7463 15.9994C83.7463 15.9167 83.7412 15.8334 83.7412 15.7508V12.3713C83.7546 11.9568 83.5777 11.559 83.2609 11.2913C82.8151 10.9785 82.2736 10.8323 81.7309 10.8782C81.1499 10.8403 80.5745 11.0108 80.108 11.3592C79.7055 11.7294 79.4814 12.2547 79.4927 12.8014H79.9221C79.9177 12.3549 80.1097 11.9289 80.4473 11.6366C80.8097 11.3666 81.2545 11.2308 81.7058 11.2522C81.9575 11.247 82.2086 11.2775 82.4517 11.343C82.6321 11.3918 82.8009 11.4763 82.9481 11.5916C83.0694 11.6885 83.1662 11.8126 83.2307 11.9538C83.2915 12.0934 83.3221 12.2442 83.3207 12.3964C83.3232 12.5667 83.3118 12.7369 83.2867 12.9054C83.2689 13.0322 83.2095 13.1495 83.1178 13.2389C83.0027 13.3385 82.8649 13.4084 82.7165 13.4425C82.4777 13.5011 82.2339 13.5372 81.9884 13.5502L81.3244 13.607C81.0799 13.6312 80.8368 13.6689 80.5963 13.7199C80.3533 13.7688 80.1203 13.8586 79.9073 13.9854C79.4348 14.2614 79.1576 14.7796 79.1903 15.3258C79.1526 15.7961 79.3414 16.2562 79.6985 16.5644C80.1175 16.8565 80.6229 16.9982 81.1326 16.9665C81.3926 16.9679 81.6514 16.9324 81.9013 16.861C82.1231 16.7983 82.3342 16.7028 82.5276 16.5777C82.7037 16.4647 82.8617 16.3257 82.9961 16.1653C83.1205 16.0184 83.2201 15.8522 83.2912 15.6733H83.314V15.9787H83.3118ZM83.3121 14.6093C83.3026 14.7558 83.2819 14.9013 83.2501 15.0446C83.1983 15.2826 83.1003 15.5082 82.9617 15.7085C82.791 15.9576 82.5676 16.1662 82.3073 16.3193C81.9516 16.514 81.5489 16.6061 81.144 16.5856C80.7471 16.6081 80.3538 16.4987 80.0256 16.2743C79.7418 16.0401 79.5901 15.6821 79.6191 15.3153C79.6087 15.0835 79.6637 14.8534 79.7778 14.6514C79.8795 14.4855 80.021 14.3476 80.1894 14.2501C80.3666 14.1493 80.5593 14.0785 80.7596 14.0406C80.9706 13.9992 81.1816 13.9673 81.3926 13.9447L82.1148 13.8768C82.3557 13.8575 82.5951 13.8235 82.8318 13.775C83.0172 13.7463 83.1869 13.6543 83.3121 13.5146V14.6108V14.6093ZM90.0758 16.8272H90.5051V8.75227H90.0758V12.3154H90.0529C89.9083 11.8753 89.6148 11.4994 89.223 11.2523C89.0282 11.1306 88.8171 11.0372 88.5959 10.975C88.3718 10.9112 88.1399 10.879 87.9069 10.8791C87.5136 10.8699 87.1234 10.9511 86.7664 11.1166C86.452 11.2676 86.1761 11.4881 85.9594 11.7614C85.7366 12.0492 85.5733 12.3784 85.4791 12.73C85.2725 13.5001 85.2687 14.3105 85.4681 15.0825C85.5575 15.43 85.7106 15.7579 85.9195 16.0496C86.1245 16.3281 86.3911 16.5554 86.6986 16.7136C87.4834 17.0771 88.3951 17.0414 89.1492 16.6177C89.5362 16.3591 89.848 16.0028 90.0529 15.5849H90.075V16.8294L90.0758 16.8272ZM86.948 16.3689C86.6817 16.2262 86.4518 16.0243 86.2759 15.7787C86.0945 15.5198 85.9608 15.2305 85.8813 14.9245C85.7939 14.6017 85.75 14.2688 85.7507 13.9345C85.7499 13.5953 85.7897 13.2572 85.8695 12.9275C85.9415 12.6191 86.072 12.3274 86.2538 12.0681C86.4286 11.8208 86.6584 11.6175 86.9251 11.4742C87.229 11.3194 87.5668 11.2433 87.9077 11.2529C88.2436 11.2452 88.576 11.3231 88.8734 11.4794C89.1421 11.625 89.3724 11.8323 89.5454 12.0843C89.7229 12.3467 89.8546 12.6373 89.9349 12.9437C90.0217 13.2666 90.0654 13.5995 90.0648 13.9337C90.0648 14.2641 90.0212 14.593 89.9349 14.9119C89.8553 15.2178 89.7213 15.5069 89.5395 15.7655C89.3656 16.0123 89.1388 16.2172 88.8756 16.3652C88.5826 16.5221 88.2539 16.6001 87.9217 16.5917C87.584 16.6008 87.2493 16.5247 86.9487 16.3704L86.948 16.3689ZM94.9157 15.0962C95.0239 15.4489 95.1993 15.7773 95.4321 16.0634C95.6599 16.34 95.9451 16.5637 96.2679 16.7192C96.9936 17.0438 97.8232 17.0438 98.5489 16.7192C98.8717 16.5637 99.1569 16.34 99.3847 16.0634C99.6175 15.7773 99.7928 15.4489 99.9011 15.0962C100.02 14.7154 100.079 14.3185 100.077 13.9196C100.079 13.5226 100.02 13.1277 99.9011 12.7489C99.7911 12.397 99.6159 12.0689 99.3847 11.7817C99.1584 11.5015 98.873 11.2748 98.5489 11.1178C97.8231 10.7935 96.9936 10.7935 96.2679 11.1178C95.9437 11.2748 95.6583 11.5015 95.4321 11.7817C95.2008 12.0689 95.0257 12.397 94.9157 12.7489C94.7965 13.1276 94.7373 13.5226 94.7401 13.9196C94.7376 14.3191 94.7971 14.7165 94.9164 15.0977L94.9157 15.0962ZM95.3156 12.9186C95.4073 12.6108 95.5527 12.3216 95.7449 12.0644C95.9313 11.8169 96.1705 11.614 96.445 11.4705C97.0507 11.1769 97.7574 11.1769 98.3631 11.4705C98.6376 11.614 98.8767 11.8169 99.0631 12.0644C99.2554 12.3216 99.4007 12.6108 99.4925 12.9186C99.6882 13.5717 99.6882 14.2677 99.4925 14.9208C99.4007 15.2286 99.2554 15.5177 99.0631 15.775C98.8762 16.021 98.6371 16.2225 98.3631 16.3652C97.7574 16.6588 97.0507 16.6588 96.445 16.3652C96.171 16.2225 95.9319 16.021 95.7449 15.775C95.5527 15.5177 95.4073 15.2286 95.3156 14.9208C95.1204 14.2681 95.1206 13.5726 95.3163 12.9201L95.3156 12.9186ZM101.097 16.8286H101.526V13.6837C101.523 13.3524 101.571 13.0225 101.667 12.7055C101.752 12.4243 101.893 12.1628 102.08 11.9361C102.259 11.7226 102.482 11.5509 102.735 11.433C103.011 11.3082 103.312 11.2464 103.615 11.2523C103.937 11.2348 104.256 11.3093 104.536 11.4669C104.743 11.5944 104.913 11.772 105.033 11.9833C105.14 12.1773 105.207 12.3907 105.23 12.6111C105.251 12.7914 105.262 12.9726 105.264 13.1541V16.8308H105.692V13.2315C105.692 13.1113 105.688 12.9696 105.68 12.8073C105.672 12.6381 105.649 12.4698 105.613 12.3042C105.573 12.1249 105.51 11.9513 105.427 11.7878C105.337 11.6145 105.217 11.4592 105.071 11.3297C104.901 11.1828 104.703 11.0712 104.489 11.0014C104.21 10.912 103.918 10.8699 103.625 10.8768C103.401 10.877 103.177 10.9075 102.961 10.9675C102.533 11.0845 102.153 11.3314 101.872 11.6742C101.73 11.8476 101.621 12.045 101.55 12.257H101.527V11.014H101.098V16.8286H101.097ZM112.683 11.0139H111.419V9.20433H110.99V11.0139H109.917V11.3872H110.99V15.4446C110.963 15.7106 111.004 15.9789 111.108 16.2251C111.19 16.4003 111.321 16.5477 111.486 16.6492C111.654 16.7463 111.841 16.8043 112.034 16.8189C112.246 16.8375 112.46 16.8395 112.672 16.8248V16.4552C112.493 16.4633 112.314 16.4594 112.136 16.4434C111.996 16.4333 111.86 16.3887 111.741 16.3136C111.629 16.2384 111.543 16.1293 111.498 16.0023C111.438 15.8239 111.412 15.6362 111.419 15.4483V11.3909H112.683V11.0139ZM113.2 8.75118V16.8276H113.629V13.6835C113.626 13.3521 113.673 13.0222 113.77 12.7053C113.855 12.4241 113.996 12.1626 114.183 11.9359C114.362 11.7224 114.585 11.5507 114.838 11.4327C115.116 11.3075 115.42 11.2465 115.725 11.2542C116.046 11.2368 116.365 11.3112 116.645 11.4689C116.852 11.5963 117.023 11.774 117.142 11.9853C117.249 12.1792 117.317 12.3927 117.34 12.6131C117.362 12.8344 117.374 13.0129 117.374 13.156V16.8327H117.802V13.2313C117.802 13.1108 117.799 12.9694 117.791 12.8071C117.783 12.6378 117.76 12.4695 117.724 12.304C117.684 12.1245 117.622 11.951 117.538 11.7876C117.448 11.6144 117.327 11.4591 117.181 11.3295C117.011 11.1826 116.814 11.071 116.6 11.0012C116.321 10.9118 116.029 10.8697 115.736 10.8765C115.512 10.8767 115.288 10.9073 115.072 10.9673C114.645 11.0842 114.264 11.3312 113.983 11.674C113.841 11.8473 113.732 12.0447 113.66 12.2568H113.638V8.75192H113.209L113.2 8.75118ZM124.639 13.9774C124.639 13.9471 124.639 13.908 124.645 13.8586C124.65 13.8092 124.65 13.7664 124.65 13.7287C124.653 13.3549 124.598 12.9828 124.487 12.6259C124.385 12.2966 124.222 11.9895 124.006 11.7207C123.794 11.4592 123.526 11.2485 123.222 11.104C122.885 10.9477 122.516 10.8703 122.144 10.8775C121.743 10.8677 121.346 10.955 120.986 11.132C120.667 11.2951 120.387 11.5269 120.167 11.8107C119.943 12.105 119.777 12.4388 119.676 12.7948C119.566 13.1752 119.511 13.5695 119.512 13.9656C119.509 14.3645 119.562 14.7618 119.67 15.1459C119.766 15.4914 119.929 15.8144 120.15 16.096C120.366 16.365 120.641 16.5814 120.952 16.729C121.304 16.8908 121.689 16.9703 122.076 16.9614C122.686 16.9911 123.286 16.7981 123.764 16.4184C124.214 16.0111 124.508 15.4588 124.594 14.8574H124.165C124.068 15.344 123.823 15.7886 123.463 16.13C123.077 16.4514 122.583 16.615 122.082 16.5881C121.758 16.5952 121.438 16.5254 121.147 16.3845C120.886 16.2529 120.659 16.0631 120.483 15.8297C120.301 15.5861 120.164 15.3111 120.081 15.0183C119.989 14.7021 119.944 14.3744 119.945 14.0452V13.9781H124.643L124.639 13.9774ZM119.953 13.604C119.976 13.3024 120.037 13.0049 120.135 12.7188C120.226 12.4441 120.368 12.1889 120.553 11.9663C120.738 11.7489 120.965 11.5719 121.221 11.4462C121.509 11.3108 121.825 11.2451 122.143 11.2544C122.443 11.249 122.74 11.315 123.009 11.447C123.258 11.5721 123.478 11.748 123.655 11.9633C123.836 12.1841 123.972 12.4375 124.057 12.7099C124.149 13.0014 124.202 13.3038 124.216 13.6092H119.958L119.953 13.604ZM42.9883 36.0567H43.9473L45.7967 31.3944H52.7481L54.5776 36.0567H55.533L49.801 21.5195H48.825L42.9883 36.0567ZM46.0789 30.6205L49.3107 22.3951H49.3513L52.4615 30.6205H46.0862H46.0789ZM57.1361 25.5918H56.3837V39.8037H57.1361V33.8785H57.1767C57.4275 34.6582 57.957 35.318 58.6639 35.7316C59.3758 36.1197 60.1763 36.3159 60.987 36.3011C61.7044 36.3179 62.4169 36.179 63.0754 35.8939C63.6461 35.6378 64.1486 35.2509 64.542 34.7645C64.9433 34.2547 65.2378 33.6694 65.408 33.0434C65.6052 32.3275 65.7013 31.5875 65.6935 30.845C65.6967 30.1361 65.6008 29.4302 65.4088 28.7477C65.2348 28.1143 64.9416 27.5199 64.5449 26.9964C64.1538 26.4909 63.6535 26.0803 63.0813 25.7954C62.432 25.4836 61.7181 25.3301 60.998 25.3477C60.0344 25.3275 59.0959 25.6563 58.3556 26.2735C58.0598 26.5195 57.8057 26.8117 57.6031 27.1388C57.4342 27.407 57.2978 27.6942 57.1966 27.9945H57.1361V25.5918ZM59.1433 35.232C58.6668 34.9845 58.2608 34.6203 57.963 34.1734C57.6607 33.7086 57.4499 33.1903 57.3419 32.6464C57.2178 32.054 57.1562 31.4502 57.1582 30.8449C57.1561 30.2383 57.2245 29.6336 57.3618 29.0427C57.4861 28.4936 57.7112 27.9723 58.0257 27.5053C58.3325 27.0567 58.741 26.6869 59.2178 26.4261C60.3484 25.8795 61.6676 25.8833 62.795 26.4364C63.2789 26.704 63.6938 27.0806 64.007 27.5363C64.3274 28.008 64.5621 28.5324 64.7005 29.0855C65.003 30.2681 64.9994 31.5083 64.6901 32.6892C64.5488 33.235 64.3069 33.7496 63.9768 34.2066C63.6563 34.6419 63.2391 34.9967 62.7581 35.2431C62.2104 35.513 61.6054 35.6459 60.995 35.6304C60.3554 35.6513 59.7205 35.5137 59.147 35.2298L59.1433 35.232ZM68.925 25.5918H68.1725V39.8037H68.925V33.8785H68.9648C69.2161 34.6579 69.7455 35.3176 70.4521 35.7316C71.1639 36.1196 71.9645 36.3159 72.7751 36.3011C73.4925 36.3179 74.205 36.179 74.8635 35.8939C75.4346 35.6383 75.9371 35.2513 76.3301 34.7645C76.7317 34.2549 77.0263 33.6695 77.1962 33.0434C77.3933 32.3275 77.4894 31.5876 77.4816 30.845C77.4848 30.1361 77.389 29.4302 77.1969 28.7477C77.0229 28.1143 76.7297 27.52 76.333 26.9964C75.9422 26.4907 75.4418 26.0801 74.8694 25.7955C74.2202 25.4835 73.5062 25.33 72.7862 25.3477C71.8225 25.3275 70.884 25.6563 70.1437 26.2735C69.8499 26.5202 69.5978 26.8126 69.3971 27.1396C69.228 27.4075 69.0915 27.6948 68.9907 27.9953H68.9294V25.5926L68.925 25.5918ZM70.9322 35.232C70.4557 34.9845 70.0496 34.6203 69.7519 34.1734C69.4499 33.7084 69.2391 33.1902 69.1307 32.6464C69.0067 32.054 68.9451 31.4502 68.947 30.8449C68.945 30.2383 69.0133 29.6335 69.1506 29.0427C69.2753 28.4937 69.5004 27.9725 69.8146 27.5053C70.1218 27.0568 70.5305 26.687 71.0074 26.4261C72.1378 25.8795 73.4567 25.8833 74.5838 26.4364C75.0678 26.7042 75.483 27.0807 75.7966 27.5363C76.1164 28.0082 76.3509 28.5325 76.4893 29.0855C76.7918 30.2681 76.7883 31.5083 76.479 32.6892C76.3377 33.235 76.0957 33.7496 75.7656 34.2066C75.4443 34.6429 75.0258 34.9982 74.5433 35.2446C73.9956 35.5145 73.3905 35.6474 72.7801 35.6319C72.1417 35.6517 71.5082 35.5136 70.9359 35.2298L70.9322 35.232ZM95.4515 25.6728C95.4327 24.9588 95.2593 24.2573 94.9432 23.6168C94.6606 23.0657 94.2535 22.588 93.754 22.2218C93.2334 21.8504 92.6472 21.5811 92.0263 21.428C91.3317 21.2538 90.6178 21.1683 89.9017 21.1735C89.3194 21.175 88.7393 21.2466 88.174 21.3867C87.6147 21.5197 87.082 21.7469 86.599 22.0588C86.1308 22.3648 85.741 22.7764 85.4607 23.2605C85.157 23.804 85.0058 24.4196 85.0233 25.042C84.9987 25.637 85.1471 26.2264 85.4504 26.7388C85.735 27.18 86.1177 27.5494 86.5688 27.818C87.0639 28.1117 87.5975 28.3351 88.1541 28.482C88.7502 28.6452 89.3531 28.7879 89.963 28.9098C90.5866 29.0318 91.193 29.1641 91.7821 29.3067C92.331 29.4344 92.863 29.6258 93.3675 29.877C93.8123 30.0955 94.1991 30.4163 94.4962 30.8131C94.796 31.253 94.9456 31.7781 94.9226 32.3099C94.9441 32.869 94.7991 33.4218 94.5057 33.8982C94.2383 34.3088 93.8846 34.6561 93.4693 34.9162C93.0503 35.1762 92.5896 35.3621 92.1075 35.4658C91.6507 35.57 91.1839 35.6247 90.7154 35.6289C90.0242 35.632 89.3351 35.5533 88.6624 35.3943C88.0513 35.2563 87.4742 34.9966 86.9657 34.6307C86.4848 34.2783 86.0976 33.8136 85.8377 33.277C85.5509 32.6425 85.4318 31.945 85.4917 31.2513H84.5976C84.5603 32.0703 84.717 32.8865 85.055 33.6334C85.3563 34.2642 85.8061 34.8125 86.3659 35.2312C86.9493 35.6583 87.613 35.9632 88.3171 36.1275C89.1029 36.3152 89.9084 36.4074 90.7162 36.402C91.3016 36.3985 91.8846 36.3269 92.4535 36.1888C93.0395 36.0534 93.5969 35.8153 94.1 35.4857C94.5964 35.1589 95.016 34.7282 95.3298 34.2235C95.6719 33.6454 95.8414 32.9813 95.8181 32.3099C95.8409 31.6946 95.6931 31.0849 95.391 30.5483C95.1102 30.0847 94.7237 29.6941 94.263 29.4085C93.7693 29.1053 93.2357 28.8721 92.6777 28.7158C92.0876 28.5466 91.4809 28.4008 90.8578 28.2784C90.2485 28.1559 89.6455 28.027 89.0489 27.8918C88.5016 27.7729 87.9697 27.5917 87.4636 27.3518C87.0272 27.1474 86.6444 26.8444 86.3453 26.4666C86.0464 26.0532 85.8962 25.5509 85.9189 25.0413C85.8997 24.5155 86.0338 23.9955 86.3047 23.5445C86.5536 23.1518 86.8915 22.8233 87.291 22.5855C87.6932 22.3469 88.133 22.1783 88.5916 22.0868C89.0227 21.9954 89.4618 21.9475 89.9025 21.9437C90.5235 21.9385 91.1424 22.0174 91.7423 22.1783C92.2675 22.3165 92.761 22.555 93.1956 22.8806C93.5998 23.1907 93.9297 23.5871 94.1612 24.041C94.4095 24.5489 94.5447 25.1046 94.5574 25.6698H95.4522L95.4515 25.6728ZM101.691 25.5916H99.4219V22.3346H98.6496V25.5923H96.719V26.2644H98.6496V33.5735C98.6031 34.0513 98.6766 34.5331 98.8635 34.9752C99.0107 35.291 99.2475 35.5565 99.5444 35.7387C99.8454 35.9143 100.182 36.0187 100.53 36.0441C100.912 36.0783 101.296 36.0817 101.679 36.0544V35.3824C101.357 35.3974 101.034 35.3908 100.713 35.3625C100.46 35.344 100.216 35.2634 100.002 35.1279C99.7996 34.9931 99.6462 34.7968 99.5643 34.568C99.4574 34.2468 99.4091 33.9089 99.4219 33.5706V26.2614H101.698V25.5894L101.691 25.5916ZM102.335 32.9413C102.529 33.5757 102.843 34.1668 103.26 34.6823C103.67 35.1803 104.183 35.5831 104.764 35.8626C106.071 36.4459 107.564 36.4459 108.87 35.8626C109.451 35.5831 109.965 35.1803 110.374 34.6823C110.792 34.1668 111.106 33.5757 111.3 32.9413C111.512 32.2559 111.619 31.5418 111.615 30.8241C111.619 30.1095 111.513 29.3985 111.3 28.7165C111.103 28.0837 110.789 27.4934 110.374 26.9762C109.967 26.4732 109.453 26.0664 108.87 25.7848C107.564 25.2016 106.071 25.2016 104.764 25.7848C104.181 26.0664 103.668 26.4732 103.26 26.9762C102.846 27.4934 102.532 28.0837 102.335 28.7165C102.121 29.3984 102.015 30.1095 102.02 30.8241C102.017 31.5425 102.124 32.2572 102.339 32.9428L102.335 32.9413ZM103.057 29.022C103.221 28.468 103.483 27.9477 103.83 27.4853C104.165 27.0396 104.595 26.6744 105.09 26.4164C106.18 25.8863 107.454 25.8863 108.545 26.4164C109.039 26.6744 109.47 27.0396 109.805 27.4853C110.151 27.948 110.413 28.4682 110.578 29.022C110.93 30.1977 110.93 31.4507 110.578 32.6264C110.413 33.1802 110.151 33.7005 109.805 34.163C109.47 34.6087 109.039 34.9739 108.545 35.232C107.454 35.7621 106.18 35.7621 105.09 35.232C104.595 34.9739 104.165 34.6087 103.83 34.163C103.483 33.7008 103.221 33.1804 103.057 32.6264C102.705 31.4507 102.707 30.1977 103.061 29.0227L103.057 29.022ZM114.197 25.5915H113.425V36.0566H114.197V30.3357C114.205 29.9943 114.239 29.6539 114.299 29.3177C114.346 29.0529 114.42 28.7936 114.52 28.5438C114.611 28.3191 114.731 28.1068 114.876 27.9124C115.031 27.7069 115.197 27.5098 115.374 27.3222C115.785 26.8985 116.3 26.5896 116.868 26.4259C117.32 26.2965 117.793 26.2552 118.26 26.3042V25.5303C117.798 25.5156 117.336 25.567 116.888 25.683C116.466 25.7907 116.063 25.9587 115.689 26.1817C115.343 26.3877 115.034 26.6492 114.774 26.9555C114.535 27.2345 114.359 27.5616 114.258 27.9146H114.197V25.5937V25.5915ZM127.815 30.9261C127.815 30.8722 127.815 30.8007 127.826 30.7122C127.836 30.6236 127.835 30.5462 127.835 30.4783C127.84 29.8053 127.741 29.1357 127.54 28.4931C127.357 27.9009 127.064 27.3484 126.676 26.8643C126.294 26.395 125.811 26.0169 125.264 25.7577C124.656 25.4765 123.992 25.3373 123.322 25.3505C122.601 25.3329 121.886 25.49 121.239 25.8086C120.663 26.1019 120.159 26.5191 119.763 27.0303C119.36 27.5595 119.059 28.1602 118.878 28.8008C118.68 29.4853 118.58 30.1949 118.583 30.9077C118.578 31.6269 118.673 32.3434 118.868 33.0359C119.039 33.6577 119.333 34.2391 119.732 34.7459C120.121 35.23 120.614 35.6199 121.175 35.8864C121.809 36.1768 122.501 36.3193 123.197 36.3032C124.295 36.357 125.375 36.0099 126.236 35.3265C127.047 34.5928 127.575 33.5988 127.731 32.5166H126.958C126.784 33.3923 126.342 34.1924 125.695 34.8072C124.999 35.3861 124.111 35.6807 123.208 35.6319C122.626 35.6439 122.05 35.5175 121.527 35.2631C121.054 35.0275 120.643 34.6859 120.324 34.2649C119.995 33.8249 119.75 33.328 119.6 32.7991C119.435 32.2303 119.353 31.6408 119.355 31.0486V30.9261H127.812H127.815ZM119.38 30.254C119.421 29.7123 119.532 29.178 119.709 28.6643C119.873 28.17 120.129 27.7109 120.463 27.3106C120.795 26.9192 121.204 26.6003 121.665 26.3737C122.18 26.1278 122.745 26.0058 123.316 26.0174C123.856 26.0076 124.391 26.1264 124.876 26.3641C125.323 26.5887 125.718 26.904 126.037 27.2899C126.362 27.6875 126.607 28.1438 126.76 28.634C126.926 29.1587 127.022 29.7029 127.046 30.2526H119.383L119.38 30.254Z" fill="white"/>
<path fill-rule="evenodd" clip-rule="evenodd" d="M28.004 15.2059C31.233 15.2059 33.2978 18.3042 33.2978 18.3042C31.3855 19.4321 30.1936 21.4698 30.1478 23.6895C30.1384 26.2195 31.7235 28.4813 34.1049 29.3359C34.1049 29.3359 30.9814 36.693 27.4744 36.693C25.5032 36.693 25.3704 35.5665 22.7531 35.5665C20.4772 35.5665 19.7093 36.693 17.9757 36.693C14.6678 36.693 10.3936 29.5218 10.3936 23.6895C10.3936 17.6315 14.7202 15.2059 17.4335 15.2059C19.8155 15.2059 20.8077 16.5972 22.7265 16.5972C24.3384 16.5972 25.6087 15.2059 28.004 15.2059ZM27.4482 9.02832C27.924 11.9976 25.2115 15.6677 21.9693 15.5504C21.4927 11.7704 24.988 9.2275 27.4482 9.02832V9.02832Z" fill="white"/>
<defs>
<linearGradient id="paint0_linear_802_8891" x1="74.9306" y1="1" x2="74.9306" y2="45.2623" gradientUnits="userSpaceOnUse">
<stop stop-color="#A7ACB1"/>
<stop offset="0.0989583" stop-color="#BABFC3"/>
</linearGradient>
</defs>
</svg>
