<svg width="150" height="46" viewBox="0 0 150 46" fill="none" xmlns="http://www.w3.org/2000/svg">
<rect x="1.11064" y="0.631148" width="148.279" height="45" rx="6.27049" stroke="white" stroke-opacity="0.2" stroke-width="0.737705"/>
<path fill-rule="evenodd" clip-rule="evenodd" d="M114.036 36.5821H112.907V24.14H114.036V36.5821ZM123.071 35.4512V29.7952C123.071 29.7952 122.757 27.4758 119.334 27.4758C115.91 27.4758 115.813 29.984 115.813 29.984H116.898C116.898 29.984 116.845 28.2696 119.308 28.2696C121.77 28.2696 121.941 29.7952 121.941 29.7952V30.9268H119.683C116.811 30.9268 115.443 32.538 115.443 34.0835C115.443 35.629 116.303 36.7267 118.408 36.7267C119.695 36.7099 120.94 36.2607 121.941 35.4512V36.5821H123.071V35.4512ZM121.941 33.1886C121.941 34.9731 119.585 35.8679 118.5 35.8679C117.415 35.8679 116.515 35.3515 116.515 34.1631C116.515 32.9746 117.962 32.0577 119.687 32.0577H121.945V33.1886H121.941ZM124.2 27.5331H125.33L128.21 35.2111L130.975 27.5331H132.105C132.105 27.5331 129.105 37.9193 128.717 38.8443C128.329 39.7694 126.719 40.215 125.581 40.215C125.222 40.1947 124.872 40.0923 124.558 39.9155L124.841 39.1225C125.079 39.2278 125.339 39.2763 125.599 39.2641C126.102 39.2641 126.975 38.1007 126.975 38.1007L127.611 36.5855L124.2 27.5331ZM107.644 27.4758C106.62 27.4059 105.629 27.8518 105.002 28.6642V27.5333H103.873V39.9755H105.002V35.4511C105.037 35.5086 105.486 36.7266 107.67 36.7266C109.894 36.7266 111.614 35.2991 111.614 32.0304C111.614 28.7616 109.553 27.4758 107.644 27.4758ZM107.488 35.9071C105.664 35.9071 105.04 33.2461 105.005 33.1886V30.9268C105.04 30.8789 105.844 28.322 107.621 28.322C109.235 28.322 110.585 29.9604 110.585 32.1012C110.585 34.2421 109.338 35.9071 107.488 35.9071ZM56.2315 25.1422C56.2315 25.1422 54.7627 23.6499 51.089 23.6499C49.2597 23.5759 47.478 24.2428 46.1468 25.4997C44.8157 26.7565 44.0477 28.4971 44.0166 30.3276C44.0166 33.1663 45.9818 36.7508 50.8684 36.7508C52.6896 36.6832 54.4934 36.3713 56.2315 35.8235V33.6214C56.2315 32.5392 57.5764 32.0575 57.5764 32.0575H53.0594L51.6762 32.9302C52.5704 32.8019 53.4737 32.7471 54.3769 32.7664V35.4959C53.6973 35.83 52.9483 35.9984 52.1911 35.9872C48.7109 35.916 45.9229 33.0818 45.9088 29.6009C45.9088 25.88 48.5719 24.3057 50.8861 24.3057C52.2835 24.3242 53.604 24.9484 54.5053 26.0164L54.0826 26.7077L54.7627 26.5254L56.2315 25.1422ZM62.4496 27.5103C61.1897 27.467 59.9673 27.9427 59.0681 28.8261C58.1688 29.7095 57.6714 30.9232 57.6921 32.1836C57.7201 34.6284 59.714 36.5934 62.1589 36.5855C65.0139 36.5855 67.0145 34.6852 67.0145 32.0117C67.0564 30.7938 66.5863 29.614 65.7184 28.7587C64.8504 27.9033 63.6638 27.4505 62.4467 27.5103H62.4496ZM62.6441 36.0037C60.4804 36.0037 59.4587 32.6685 59.4587 30.9814C59.4587 29.2942 60.6051 28.0925 61.9256 28.0925C63.8097 28.0925 65.1103 30.3115 65.1103 32.9016C65.1073 33.7935 64.8048 36.0037 62.6412 36.0037H62.6441ZM72.6521 27.5147C71.3928 27.4717 70.171 27.9471 69.2721 28.83C68.3731 29.7129 67.8757 30.926 67.8961 32.1858C67.924 34.6297 69.9174 36.5937 72.3614 36.5855C75.2148 36.5855 77.214 34.6866 77.214 32.0117C77.256 30.7947 76.7862 29.6158 75.9187 28.7612C75.0512 27.9066 73.8653 27.4545 72.6491 27.5147H72.6521ZM72.8458 36.0042C70.6836 36.0042 69.6627 32.6705 69.6627 30.9878C69.6627 29.3051 70.8083 28.1004 72.1281 28.1004C74.0114 28.1004 75.312 30.3187 75.312 32.9066C75.309 33.7948 75.0058 36.0042 72.8429 36.0042H72.8458ZM84.7432 35.9423C83.8071 35.2976 83.6241 34.9892 83.6241 34.7096C83.6241 34.43 83.6337 34.2043 84.2991 33.5736C85.0803 32.9829 85.5494 32.0681 85.5731 31.089C85.6084 30.0925 85.1633 29.1395 84.3766 28.5269L85.5148 28.4886L86.6531 27.8143H82.2158C80.1166 27.7411 78.3432 29.3579 78.2226 31.4549C78.2226 32.7828 79.3506 34.3725 81.5792 34.3725C81.7094 34.3742 81.8392 34.3581 81.965 34.3246C81.8759 34.5415 81.83 34.7738 81.83 35.0084C81.8739 35.4597 82.0674 35.8835 82.3796 36.2123C82.3796 36.2123 77.2385 36.2175 77.2385 39.5062C77.2385 41.4943 79.4863 42.2409 81.3284 42.2409C83.1704 42.2409 86.3248 41.2494 86.3248 38.7161C86.3055 37.5815 85.7078 36.5353 84.7403 35.9423H84.7432ZM82.3028 33.795C80.9572 33.795 79.8861 31.7869 79.8861 30.5734C79.8861 29.3599 80.4939 28.4931 81.5643 28.4931C82.6347 28.4931 83.9088 29.7206 83.9088 31.9603C83.9058 32.74 83.6454 33.795 82.2998 33.795H82.3028ZM82.2018 41.4228C81.5791 41.4228 78.9315 41.1771 78.9315 39.082C78.9315 36.9869 81.9841 36.7951 82.3382 36.7951C82.5588 36.7958 82.779 36.8128 82.997 36.846C83.9376 37.6767 84.9792 38.0883 84.9792 39.3882C84.9763 41.2494 82.8207 41.4264 82.1988 41.4264L82.2018 41.4228ZM86.9368 24.1398L87.6944 22.9941L90.325 23.0082C89.6759 23.3541 89.2126 23.6573 89.1956 25.2707C89.1786 26.8841 89.1956 34.3201 89.1956 34.3201C89.2979 35.0322 89.8005 35.6221 90.4873 35.8361C90.7044 35.8259 90.9216 35.8549 91.1284 35.9217L90.325 36.5856H86.9368C86.9368 36.5856 88.0603 35.8863 88.0662 35.4547V24.1398H86.9368ZM98.7405 29.8697C98.3636 28.3724 96.9651 27.3625 95.4252 27.4759C94.2511 27.4527 93.1197 27.9165 92.2998 28.7573C91.4798 29.598 91.0445 30.7407 91.0971 31.9139C91.0971 34.113 92.4036 36.5858 95.6591 36.5858C96.977 36.6053 98.2188 35.9697 98.9736 34.8891C98.2676 35.2807 97.4794 35.5008 96.6727 35.5316C94.8601 35.5316 92.754 33.6239 92.754 30.8206C92.754 28.9321 94.073 28.173 94.8992 28.173C95.3842 28.1174 95.8685 28.2817 96.2196 28.6209C96.5706 28.96 96.7514 29.4385 96.7125 29.925C96.565 30.1884 92.813 31.7162 92.813 31.7162L94.3142 31.638L98.7405 29.8697Z" fill="white"/>
<path d="M50.3008 10.2104V10.476C50.3008 11.1154 50.0721 11.6563 49.6147 12.099C49.1574 12.5367 48.5451 12.7555 47.7778 12.7555C46.9959 12.7555 46.3492 12.4973 45.8377 11.9809C45.3262 11.4645 45.0705 10.8326 45.0705 10.085C45.0705 9.33748 45.3262 8.70552 45.8377 8.18912C46.3492 7.67273 46.9959 7.41453 47.7778 7.41453C48.2549 7.41453 48.6926 7.53011 49.091 7.76125C49.4893 7.9924 49.7967 8.29978 50.0131 8.68339L49.5557 8.94896C49.3934 8.63421 49.1524 8.38339 48.8328 8.1965C48.5131 8.00962 48.1615 7.91617 47.7778 7.91617C47.1336 7.91617 46.6074 8.12519 46.1992 8.54322C45.791 8.96125 45.5869 9.47519 45.5869 10.085C45.5869 10.6949 45.791 11.2088 46.1992 11.6268C46.6074 12.0449 47.1336 12.2539 47.7778 12.2539C48.3582 12.2539 48.8229 12.1088 49.1721 11.8186C49.5213 11.5235 49.7205 11.1498 49.7697 10.6973H47.7188V10.2104H50.3008ZM52.8168 8.88994C53.3627 8.88994 53.8029 9.08421 54.1373 9.47273C54.4767 9.85634 54.6463 10.3113 54.6463 10.8375C54.6463 10.8916 54.6414 10.9678 54.6316 11.0662H51.3931C51.4422 11.4399 51.5996 11.7375 51.8652 11.9588C52.1357 12.1752 52.4677 12.2834 52.8611 12.2834C53.1414 12.2834 53.3824 12.2268 53.584 12.1137C53.7906 11.9957 53.9455 11.8432 54.0488 11.6563L54.4767 11.9072C54.3144 12.1678 54.0931 12.3744 53.8127 12.5268C53.5324 12.6793 53.2127 12.7555 52.8537 12.7555C52.2734 12.7555 51.8013 12.5735 51.4373 12.2096C51.0734 11.8457 50.8914 11.3834 50.8914 10.8227C50.8914 10.2719 51.0709 9.81207 51.4299 9.44322C51.789 9.07437 52.2513 8.88994 52.8168 8.88994ZM52.8168 9.36207C52.4332 9.36207 52.1111 9.47765 51.8504 9.7088C51.5947 9.93503 51.4422 10.2301 51.3931 10.594H54.1447C54.0955 10.2055 53.9455 9.90306 53.6947 9.68666C53.4439 9.47027 53.1513 9.36207 52.8168 9.36207ZM57.2677 9.4506H56.2054V11.6858C56.2054 11.8875 56.2447 12.0326 56.3234 12.1211C56.4021 12.2047 56.5201 12.249 56.6775 12.2539C56.8349 12.2539 57.0316 12.249 57.2677 12.2391V12.667C56.7513 12.7457 56.3628 12.7088 56.1021 12.5563C55.8464 12.4039 55.7185 12.1137 55.7185 11.6858V9.4506H54.9439V8.97847H55.7185V8.09322L56.2054 7.94568V8.97847H57.2677V9.4506ZM60.4177 8.09322C60.3488 8.16207 60.2652 8.1965 60.1669 8.1965C60.0685 8.1965 59.9849 8.16207 59.916 8.09322C59.8472 8.02437 59.8128 7.94076 59.8128 7.8424C59.8128 7.74404 59.8472 7.66044 59.916 7.59158C59.9849 7.52273 60.0685 7.4883 60.1669 7.4883C60.2652 7.4883 60.3488 7.52273 60.4177 7.59158C60.4865 7.66044 60.521 7.74404 60.521 7.8424C60.521 7.94076 60.4865 8.02437 60.4177 8.09322ZM59.9234 12.667V8.97847H60.4103V12.667H59.9234ZM63.3984 9.4506H62.3361V11.6858C62.3361 11.8875 62.3755 12.0326 62.4541 12.1211C62.5328 12.2047 62.6509 12.249 62.8082 12.2539C62.9656 12.2539 63.1623 12.249 63.3984 12.2391V12.667C62.882 12.7457 62.4935 12.7088 62.2328 12.5563C61.9771 12.4039 61.8492 12.1137 61.8492 11.6858V9.4506H61.0746V8.97847H61.8492V8.09322L62.3361 7.94568V8.97847H63.3984V9.4506ZM69.1451 12.2022C68.7714 12.5711 68.314 12.7555 67.773 12.7555C67.232 12.7555 66.7722 12.5711 66.3935 12.2022C66.0197 11.8285 65.8328 11.3686 65.8328 10.8227C65.8328 10.2768 66.0197 9.81945 66.3935 9.4506C66.7722 9.07683 67.232 8.88994 67.773 8.88994C68.314 8.88994 68.7714 9.07683 69.1451 9.4506C69.5238 9.81945 69.7132 10.2768 69.7132 10.8227C69.7132 11.3686 69.5238 11.8285 69.1451 12.2022ZM66.7402 11.8629C67.0205 12.1432 67.3648 12.2834 67.773 12.2834C68.1812 12.2834 68.5255 12.1432 68.8058 11.8629C69.0861 11.5776 69.2263 11.2309 69.2263 10.8227C69.2263 10.4145 69.0861 10.0703 68.8058 9.78994C68.5255 9.5047 68.1812 9.36207 67.773 9.36207C67.3648 9.36207 67.0205 9.5047 66.7402 9.78994C66.4599 10.0703 66.3197 10.4145 66.3197 10.8227C66.3197 11.2309 66.4599 11.5776 66.7402 11.8629ZM72.2541 8.88994C72.7017 8.88994 73.0533 9.02765 73.3091 9.30306C73.5697 9.57355 73.7 9.93994 73.7 10.4022V12.667H73.2132V10.4022C73.2132 10.0727 73.1246 9.81699 72.9476 9.63503C72.7755 9.45306 72.5296 9.36207 72.2099 9.36207C71.8558 9.36207 71.5681 9.47519 71.3468 9.70142C71.1255 9.92273 71.0148 10.267 71.0148 10.7342V12.667H70.5279V8.97847H71.0148V9.55388C71.2902 9.11125 71.7033 8.88994 72.2541 8.88994Z" fill="white"/>
<path fill-rule="evenodd" clip-rule="evenodd" d="M36.4039 24.3377L31.2702 27.2022L27.1553 23.1072L31.2702 19.0122L36.4039 21.8767C36.9049 22.08 37.2326 22.5666 37.2326 23.1072C37.2326 23.6479 36.9049 24.1345 36.4039 24.3377ZM26.4879 22.441L12.9746 8.99414C13.3714 9.06469 13.7517 9.20773 14.0967 9.41611C15.7595 10.3515 24.3899 15.1702 30.4147 18.5334L26.4879 22.441ZM11.9118 36.9451C11.5732 36.5816 11.3695 36.1129 11.335 35.6173V10.5906C11.3703 10.0963 11.5739 9.62897 11.9118 9.26646L25.8183 23.1043L11.9118 36.9451ZM26.4879 23.7735L30.4147 27.6833C24.3899 31.0465 15.7595 35.8652 14.0967 36.8006C13.7517 37.009 13.3714 37.152 12.9746 37.2226L26.4879 23.7735Z" fill="white"/>
</svg>
